# This file uses centimeters as units for non-parametric coordinates.

mtllib BIG_house_two_story.mtl
g default
v -5.127061 0.562563 5.127061
v 5.127061 0.562563 5.127061
v -5.127061 17.020881 5.127061
v 5.127061 17.020881 5.127061
v -5.127061 17.020881 -5.127061
v 5.127061 17.020881 -5.127061
v -5.127061 0.562563 -5.127061
v 5.127061 0.562563 -5.127061
v -0.121656 21.424919 0.121656
v 0.121656 21.424919 0.121656
v 0.121656 21.424919 -0.121656
v -0.121656 21.424919 -0.121656
vt 0.628379 0.609241
vt 0.224702 0.612960
vt 0.834496 0.608909
vt 0.423583 0.612584
vt 0.617631 0.946063
vt 0.407144 0.941578
vt 0.574623 0.247252
vt 0.824623 0.247252
vt 0.574623 0.497252
vt 0.824623 0.497252
vt 0.424226 0.932613
vt 0.224336 0.932394
vt 0.830615 0.942280
vt 0.630325 0.942034
vt 0.600763 0.213126
vt 0.850763 0.213126
vt 0.850763 0.463126
vt 0.600763 0.463126
vt 0.718216 0.520285
vt 0.717403 0.126731
vt 0.979789 0.327942
vt 0.979591 0.337699
vt 0.714046 0.518129
vt 0.708188 0.134615
vt 0.979806 0.319222
vt 0.979997 0.329887
vt 0.704821 0.511859
vt 0.708491 0.125500
vt 0.969315 0.316356
vt 0.969107 0.328017
vt 0.707452 0.516600
vt 0.711606 0.114595
vt 0.987674 0.309774
vt 0.987528 0.320810
vt 0.016621 0.629206
vt 0.216127 0.627247
vt 0.215544 0.947906
vt 0.016844 0.946797
vt 0.408227 0.612972
vt 0.615932 0.605125
vn 0.000000 0.000000 1.000000
vn 0.000000 0.000000 1.000000
vn 0.000000 0.000000 1.000000
vn 0.000000 0.000000 1.000000
vn 0.000000 1.000000 0.000000
vn 0.000000 1.000000 0.000000
vn 0.000000 1.000000 0.000000
vn 0.000000 1.000000 0.000000
vn 0.000000 0.000000 -1.000000
vn 0.000000 0.000000 -1.000000
vn 0.000000 0.000000 -1.000000
vn 0.000000 0.000000 -1.000000
vn 0.000000 -1.000000 0.000000
vn 0.000000 -1.000000 0.000000
vn 0.000000 -1.000000 0.000000
vn 0.000000 -1.000000 0.000000
vn 1.000000 0.000000 0.000000
vn 1.000000 0.000000 0.000000
vn 1.000000 0.000000 0.000000
vn 1.000000 0.000000 0.000000
vn -1.000000 0.000000 0.000000
vn -1.000000 0.000000 0.000000
vn -1.000000 0.000000 0.000000
vn -1.000000 0.000000 0.000000
vn 0.000000 0.750767 0.660567
vn 0.000000 0.750767 0.660567
vn 0.000000 0.750767 0.660567
vn 0.000000 0.750767 0.660567
vn 0.660567 0.750767 0.000000
vn 0.660567 0.750767 0.000000
vn 0.660567 0.750767 0.000000
vn 0.660567 0.750767 0.000000
vn 0.000000 0.750767 -0.660567
vn 0.000000 0.750767 -0.660567
vn 0.000000 0.750767 -0.660567
vn 0.000000 0.750767 -0.660567
vn -0.660567 0.750767 0.000000
vn -0.660567 0.750767 0.000000
vn -0.660567 0.750767 0.000000
vn -0.660567 0.750767 0.000000
s off
g housefoundation
usemtl lambert2SG
f 1/35/1 2/36/2 4/37/3 3/38/4
f 9/15/5 10/16/6 11/17/7 12/18/8
f 5/5/9 6/6/10 8/39/11 7/40/12
f 7/7/13 8/8/14 2/10/15 1/9/16
f 2/2/17 8/4/18 6/11/19 4/12/20
f 7/1/21 1/3/22 3/13/23 5/14/24
f 3/31/25 4/32/26 10/33/27 9/34/28
f 4/23/29 6/24/30 11/25/31 10/26/32
f 6/27/33 5/28/34 12/29/35 11/30/36
f 5/19/37 3/20/38 9/21/39 12/22/40
g default
v -0.500000 15.803868 -2.997082
v 0.500000 15.803868 -2.997082
v -0.500000 22.062705 -2.997082
v 0.500000 22.062705 -2.997082
v -0.500000 22.062705 -3.997082
v 0.500000 22.062705 -3.997082
v -0.500000 15.803868 -3.997082
v 0.500000 15.803868 -3.997082
vt -0.247674 0.698007
vt -0.243346 0.543033
vt 0.724328 0.604401
vt 0.710919 0.779954
vt -0.254998 0.704748
vt -0.233299 0.551679
vt 0.721973 0.609495
vt 0.711674 0.780009
vt 0.338705 0.001992
vt 0.668185 0.001992
vt 0.668185 0.331472
vt 0.338705 0.331472
vt 0.214721 0.340569
vt 0.221118 0.251781
vt 0.305819 0.257884
vt 0.299421 0.346673
vt -0.254143 0.692883
vt -0.241067 0.537732
vt 0.724400 0.600936
vt 0.711674 0.780009
vt 0.724476 0.602350
vt 0.711294 0.779981
vt -0.253145 0.697542
vt -0.243406 0.543873
vn 0.000000 0.000000 1.000000
vn 0.000000 0.000000 1.000000
vn 0.000000 0.000000 1.000000
vn 0.000000 0.000000 1.000000
vn 0.000000 1.000000 0.000000
vn 0.000000 1.000000 0.000000
vn 0.000000 1.000000 0.000000
vn 0.000000 1.000000 0.000000
vn 0.000000 0.000000 -1.000000
vn 0.000000 0.000000 -1.000000
vn 0.000000 0.000000 -1.000000
vn 0.000000 0.000000 -1.000000
vn 0.000000 -1.000000 0.000000
vn 0.000000 -1.000000 0.000000
vn 0.000000 -1.000000 0.000000
vn 0.000000 -1.000000 0.000000
vn 1.000000 0.000000 0.000000
vn 1.000000 0.000000 0.000000
vn 1.000000 0.000000 0.000000
vn 1.000000 0.000000 0.000000
vn -1.000000 0.000000 0.000000
vn -1.000000 0.000000 0.000000
vn -1.000000 0.000000 0.000000
vn -1.000000 0.000000 0.000000
s off
g chimney
usemtl lambert3SG
f 13/57/41 14/58/42 16/59/43 15/60/44
f 15/49/45 16/50/46 18/51/47 17/52/48
f 17/61/49 18/62/50 20/63/51 19/64/52
f 19/53/53 20/54/54 14/55/55 13/56/56
f 14/41/57 20/42/58 18/43/59 16/44/60
f 19/45/61 13/46/62 15/47/63 17/48/64
