# This file uses meters as units for non-parametric coordinates.

mtllib Mail_box.mtl
g default
v -26.961133 -7.131101 30.850414
v 26.961133 -7.131101 30.850414
v -26.961133 799.137499 30.850414
v 26.961133 799.137499 30.850414
v -26.961133 799.137499 -30.850414
v 26.961133 799.137499 -30.850414
v -26.961133 -7.131101 -30.850414
v 26.961133 -7.131101 -30.850414
v -76.331757 799.137499 120.007660
v 76.331757 799.137499 120.007660
v 76.331757 799.137499 -120.007660
v -76.331757 799.137499 -120.007660
v -76.331757 968.294660 120.007660
v 76.331757 968.294660 120.007660
v 76.331757 968.294660 -120.007660
v -76.331757 968.294660 -120.007660
v -23.784100 1030.873629 27.215069
v 23.784100 1030.873629 27.215069
v 23.784100 1030.873629 -27.215069
v -23.784100 1030.873629 -27.215069
vt 0.900710 0.049536
vt 0.907358 0.050077
vt 0.354157 0.737605
vt 0.541226 0.737605
vt 0.354157 0.924674
vt 0.541226 0.924674
vt 0.890412 0.794034
vt 0.973238 0.948386
vt 0.890412 0.881663
vt 0.987677 0.881663
vt 0.897602 0.050413
vt 0.972805 0.049536
vt 0.975977 0.053187
vt 0.974794 0.948749
vt 0.062577 0.326492
vt 0.336070 0.304043
vt 0.359800 0.703708
vt 0.373969 0.048277
vt 0.031123 0.679285
vt 0.097994 0.989633
vt 0.010208 0.834636
vt 0.011127 0.683429
vt 0.236361 0.901362
vt 0.108015 0.685311
vt 0.160486 0.834636
vt 0.296158 0.674947
vt 0.272223 0.326221
vt 0.624622 0.050016
vt 0.596111 0.706421
vt 0.663961 0.307376
vt 0.354157 0.737605
vt 0.354157 0.924674
vt 0.541226 0.924674
vt 0.541226 0.737605
vt 0.160486 0.984913
vt 0.010208 0.984913
vt 0.045579 0.904667
vt 0.256650 0.663543
vt 0.040975 0.684151
vt 0.235216 0.680725
vt 0.188426 0.775961
vt 0.122600 0.777467
vt 0.185231 0.827679
vt 0.117974 0.831225
vt 0.207307 0.810691
vt 0.203856 0.879637
vt 0.635633 0.231623
vt 0.364367 0.232558
vt 0.278117 0.543042
vt 0.058126 0.542837
vt 0.605892 0.946161
vt 0.353529 0.948462
vt 0.666576 0.537322
vt 0.333424 0.540138
vt 0.981053 0.950464
vt 0.901064 0.950268
vt 0.976566 0.049536
vt 0.897602 0.950464
vt 0.907441 0.950464
vt 0.987677 0.794034
vt 0.907358 0.049536
vt 0.972574 0.053003
vt 0.975418 0.950464
vt 0.910875 0.949470
vn 0.000000 0.000000 1.000000
vn 0.000000 0.000000 1.000000
vn 0.000000 0.000000 1.000000
vn 0.000000 0.000000 1.000000
vn 0.000000 1.000000 0.000000
vn 0.000000 1.000000 0.000000
vn 0.000000 1.000000 0.000000
vn 0.000000 1.000000 0.000000
vn 0.000000 0.000000 -1.000000
vn 0.000000 0.000000 -1.000000
vn 0.000000 0.000000 -1.000000
vn 0.000000 0.000000 -1.000000
vn 0.000000 -1.000000 0.000000
vn 0.000000 -1.000000 0.000000
vn 0.000000 -1.000000 0.000000
vn 0.000000 -1.000000 0.000000
vn 1.000000 0.000000 0.000000
vn 1.000000 0.000000 0.000000
vn 1.000000 0.000000 0.000000
vn 1.000000 0.000000 0.000000
vn -1.000000 0.000000 0.000000
vn -1.000000 0.000000 0.000000
vn -1.000000 0.000000 0.000000
vn -1.000000 0.000000 0.000000
vn 0.000000 -1.000000 0.000000
vn 0.000000 -1.000000 0.000000
vn 0.000000 -1.000000 0.000000
vn 0.000000 -1.000000 0.000000
vn 0.000000 -1.000000 0.000000
vn 0.000000 -1.000000 0.000000
vn 0.000000 -1.000000 0.000000
vn 0.000000 -1.000000 0.000000
vn 0.000000 -1.000000 0.000000
vn 0.000000 -1.000000 0.000000
vn 0.000000 -1.000000 0.000000
vn 0.000000 -1.000000 0.000000
vn 0.000000 -1.000000 0.000000
vn 0.000000 -1.000000 0.000000
vn 0.000000 -1.000000 0.000000
vn 0.000000 -1.000000 0.000000
vn 0.000000 0.000000 1.000000
vn 0.000000 0.000000 1.000000
vn 0.000000 0.000000 1.000000
vn 0.000000 0.000000 1.000000
vn 1.000000 0.000000 0.000000
vn 1.000000 0.000000 0.000000
vn 1.000000 0.000000 0.000000
vn 1.000000 0.000000 0.000000
vn 0.000000 0.000000 -1.000000
vn 0.000000 0.000000 -1.000000
vn 0.000000 0.000000 -1.000000
vn 0.000000 0.000000 -1.000000
vn -1.000000 0.000000 0.000000
vn -1.000000 0.000000 0.000000
vn -1.000000 0.000000 0.000000
vn -1.000000 0.000000 0.000000
vn 0.000000 0.829081 0.559129
vn 0.000000 0.829081 0.559129
vn 0.000000 0.829081 0.559129
vn 0.000000 0.829081 0.559129
vn 0.765817 0.643058 0.000000
vn 0.765817 0.643058 0.000000
vn 0.765817 0.643058 0.000000
vn 0.765817 0.643058 0.000000
vn 0.000000 0.829081 -0.559129
vn 0.000000 0.829081 -0.559129
vn 0.000000 0.829081 -0.559129
vn 0.000000 0.829081 -0.559129
vn -0.765817 0.643058 0.000000
vn -0.765817 0.643058 0.000000
vn -0.765817 0.643058 0.000000
vn -0.765817 0.643058 0.000000
s off
g mail_box
usemtl lambert4SG
f 1/2/1 2/57/2 4/63/3 3/64/4
f 17/23/5 18/37/6 19/39/7 20/40/8
f 5/8/9 6/59/10 8/61/11 7/62/12
f 7/7/13 8/60/14 2/10/15 1/9/16
f 2/11/17 8/12/18 6/55/19 4/56/20
f 7/1/21 1/13/22 3/14/23 5/58/24
f 3/3/25 4/4/26 10/34/27 9/31/28
f 4/4/29 6/6/30 11/33/31 10/34/32
f 6/6/33 5/5/34 12/32/35 11/33/36
f 5/5/37 3/3/38 9/31/39 12/32/40
f 9/15/41 10/27/42 14/49/43 13/50/44
f 10/16/45 11/30/46 15/53/47 14/54/48
f 11/17/49 12/29/50 16/51/51 15/52/52
f 12/18/53 9/28/54 13/47/55 16/48/56
f 13/19/57 14/38/58 18/43/59 17/44/60
f 14/20/61 15/24/62 19/45/63 18/46/64
f 15/21/65 16/25/66 20/35/67 19/36/68
f 16/22/69 13/26/70 17/41/71 20/42/72
g default
v 76.112869 1043.188820 58.106817
v 75.959411 1042.859401 68.100212
v 75.805953 1042.529983 78.093606
v 75.652495 1042.200565 88.087001
v 75.499036 1041.871147 98.080395
v 75.345578 1041.541728 108.073790
v 76.112869 1033.194248 57.777360
v 75.959411 1032.864830 67.770754
v 75.805953 1032.535412 77.764149
v 75.652495 1032.205993 87.757543
v 75.499036 1031.876575 97.750938
v 75.345578 1031.547157 107.744333
v 76.112869 1023.199677 57.447903
v 75.959411 1022.870258 67.441297
v 75.805953 1022.540840 77.434692
v 75.652495 1022.211422 87.428086
v 75.499036 1021.882004 97.421481
v 75.345578 1021.552585 107.414875
v 75.652495 1012.216850 87.098629
v 75.499036 1011.887432 97.092024
v 75.345578 1011.558014 107.085418
v 75.652495 1002.222279 86.769172
v 75.499036 1001.892861 96.762567
v 75.345578 1001.563443 106.755961
v 75.652495 992.227708 86.439715
v 75.499036 991.898289 96.433110
v 75.345578 991.568871 106.426504
v 75.652495 982.233136 86.110258
v 75.499036 981.903718 96.103653
v 75.345578 981.574300 106.097047
v 75.652495 972.238565 85.780801
v 75.499036 971.909147 95.774196
v 75.345578 971.579728 105.767590
v 75.652495 962.243993 85.451344
v 75.499036 961.914575 95.444739
v 75.345578 961.585157 105.438133
v 75.652495 952.249422 85.121887
v 75.499036 951.920004 95.115282
v 75.345578 951.590585 105.108676
v 75.652495 942.254850 84.792430
v 75.499036 941.925432 94.785825
v 75.345578 941.596014 104.779219
v 85.023043 1043.184314 58.243493
v 84.869584 1042.854896 68.236887
v 84.869584 1032.860325 67.907430
v 85.023043 1033.189743 57.914036
v 84.716126 1042.525478 78.230282
v 84.716126 1032.530906 77.900825
v 84.562668 1042.196059 88.223676
v 84.562668 1032.201488 87.894219
v 84.409210 1041.866641 98.217071
v 84.409210 1031.872070 97.887614
v 84.255751 1041.537223 108.210465
v 84.255751 1031.542651 107.881008
v 84.869584 1022.865753 67.577973
v 85.023043 1023.195171 57.584579
v 84.716126 1022.536335 77.571368
v 84.562668 1022.206917 87.564762
v 84.409210 1021.877498 97.558157
v 84.255751 1021.548080 107.551551
v 84.409210 1011.882927 97.228700
v 84.562668 1012.212345 87.235305
v 84.255751 1011.553509 107.222094
v 84.409210 1001.888355 96.899243
v 84.562668 1002.217774 86.905848
v 84.255751 1001.558937 106.892637
v 84.409210 991.893784 96.569786
v 84.562668 992.223202 86.576391
v 84.255751 991.564366 106.563180
v 84.409210 981.899213 96.240329
v 84.562668 982.228631 86.246934
v 84.255751 981.569794 106.233723
v 84.409210 971.904641 95.910872
v 84.562668 972.234059 85.917477
v 84.255751 971.575223 105.904266
v 84.409210 961.910070 95.581414
v 84.562668 962.239488 85.588020
v 84.255751 961.580651 105.574809
v 84.409210 951.915498 95.251957
v 84.562668 952.244917 85.258563
v 84.255751 951.586080 105.245352
v 84.409210 941.920927 94.922500
v 84.562668 942.250345 84.929106
v 84.255751 941.591509 104.915895
vt 0.200000 0.000000
vt 0.300000 0.000000
vt 0.400000 0.000000
vt 0.500000 0.000000
vt 0.600000 0.000000
vt 0.700000 0.000000
vt 0.200000 0.100000
vt 0.300000 0.100000
vt 0.400000 0.100000
vt 0.500000 0.100000
vt 0.600000 0.100000
vt 0.700000 0.100000
vt 0.200000 0.200000
vt 0.300000 0.200000
vt 0.400000 0.200000
vt 0.500000 0.200000
vt 0.600000 0.200000
vt 0.700000 0.200000
vt 0.500000 0.300000
vt 0.600000 0.300000
vt 0.700000 0.300000
vt 0.500000 0.400000
vt 0.600000 0.400000
vt 0.700000 0.400000
vt 0.500000 0.500000
vt 0.600000 0.500000
vt 0.700000 0.500000
vt 0.500000 0.600000
vt 0.600000 0.600000
vt 0.700000 0.600000
vt 0.500000 0.700000
vt 0.600000 0.700000
vt 0.700000 0.700000
vt 0.500000 0.800000
vt 0.600000 0.800000
vt 0.700000 0.800000
vt 0.500000 0.900000
vt 0.600000 0.900000
vt 0.700000 0.900000
vt 0.500000 1.000000
vt 0.600000 1.000000
vt 0.700000 1.000000
vt 0.200000 0.000000
vt 0.300000 0.000000
vt 0.300000 0.100000
vt 0.200000 0.100000
vt 0.400000 0.000000
vt 0.400000 0.100000
vt 0.500000 0.000000
vt 0.500000 0.100000
vt 0.600000 0.000000
vt 0.600000 0.100000
vt 0.700000 0.000000
vt 0.700000 0.100000
vt 0.300000 0.200000
vt 0.200000 0.200000
vt 0.400000 0.200000
vt 0.500000 0.200000
vt 0.600000 0.200000
vt 0.700000 0.200000
vt 0.600000 0.300000
vt 0.500000 0.300000
vt 0.700000 0.300000
vt 0.600000 0.400000
vt 0.500000 0.400000
vt 0.700000 0.400000
vt 0.600000 0.500000
vt 0.500000 0.500000
vt 0.700000 0.500000
vt 0.600000 0.600000
vt 0.500000 0.600000
vt 0.700000 0.600000
vt 0.600000 0.700000
vt 0.500000 0.700000
vt 0.700000 0.700000
vt 0.600000 0.800000
vt 0.500000 0.800000
vt 0.700000 0.800000
vt 0.600000 0.900000
vt 0.500000 0.900000
vt 0.700000 0.900000
vt 0.600000 1.000000
vt 0.500000 1.000000
vt 0.700000 1.000000
vt 0.200000 0.000000
vt 0.300000 0.000000
vt 0.200000 0.100000
vt 0.400000 0.000000
vt 0.500000 0.000000
vt 0.600000 0.000000
vt 0.700000 0.000000
vt 0.700000 0.100000
vt 0.300000 0.200000
vt 0.200000 0.200000
vt 0.400000 0.200000
vt 0.500000 0.200000
vt 0.700000 0.200000
vt 0.500000 0.300000
vt 0.700000 0.300000
vt 0.500000 0.400000
vt 0.700000 0.400000
vt 0.500000 0.500000
vt 0.700000 0.500000
vt 0.500000 0.600000
vt 0.700000 0.600000
vt 0.500000 0.700000
vt 0.700000 0.700000
vt 0.500000 0.800000
vt 0.700000 0.800000
vt 0.500000 0.900000
vt 0.700000 0.900000
vt 0.600000 1.000000
vt 0.500000 1.000000
vt 0.700000 1.000000
vn 0.999882 -0.000506 0.015337
vn 0.999882 -0.000506 0.015337
vn 0.999882 -0.000506 0.015337
vn 0.999882 -0.000506 0.015337
vn 0.999882 -0.000506 0.015337
vn 0.999882 -0.000506 0.015337
vn 0.999882 -0.000506 0.015337
vn 0.999882 -0.000506 0.015337
vn 0.999882 -0.000506 0.015337
vn 0.999882 -0.000506 0.015337
vn 0.999882 -0.000506 0.015337
vn 0.999882 -0.000506 0.015337
vn 0.999882 -0.000506 0.015337
vn 0.999882 -0.000506 0.015337
vn 0.999882 -0.000506 0.015337
vn 0.999882 -0.000506 0.015337
vn 0.999882 -0.000506 0.015337
vn 0.999882 -0.000506 0.015337
vn 0.999882 -0.000506 0.015337
vn 0.999882 -0.000506 0.015337
vn 0.999882 -0.000506 0.015337
vn 0.999882 -0.000506 0.015337
vn 0.999882 -0.000506 0.015337
vn 0.999882 -0.000506 0.015337
vn 0.999882 -0.000506 0.015337
vn 0.999882 -0.000506 0.015337
vn 0.999882 -0.000506 0.015337
vn 0.999882 -0.000506 0.015337
vn 0.999882 -0.000506 0.015337
vn 0.999882 -0.000506 0.015337
vn 0.999882 -0.000506 0.015337
vn 0.999882 -0.000506 0.015337
vn 0.999882 -0.000506 0.015337
vn 0.999882 -0.000506 0.015337
vn 0.999882 -0.000506 0.015337
vn 0.999882 -0.000506 0.015337
vn 0.999882 -0.000506 0.015337
vn 0.999882 -0.000506 0.015337
vn 0.999882 -0.000506 0.015337
vn 0.999882 -0.000506 0.015337
vn 0.999882 -0.000506 0.015337
vn 0.999882 -0.000506 0.015337
vn -0.999882 0.000506 -0.015337
vn -0.999882 0.000506 -0.015337
vn -0.999882 0.000506 -0.015337
vn -0.999882 0.000506 -0.015337
vn -0.999882 0.000506 -0.015337
vn -0.999882 0.000506 -0.015337
vn -0.999882 0.000506 -0.015337
vn -0.999882 0.000506 -0.015337
vn -0.999882 0.000506 -0.015337
vn -0.999882 0.000506 -0.015337
vn -0.999882 0.000506 -0.015337
vn -0.999882 0.000506 -0.015337
vn -0.999882 0.000506 -0.015337
vn -0.999882 0.000506 -0.015337
vn -0.999882 0.000506 -0.015337
vn -0.999882 0.000506 -0.015337
vn -0.999882 0.000506 -0.015337
vn -0.999882 0.000506 -0.015337
vn -0.999882 0.000506 -0.015337
vn -0.999882 0.000506 -0.015337
vn -0.999882 0.000506 -0.015337
vn -0.999882 0.000506 -0.015337
vn -0.999882 0.000506 -0.015337
vn -0.999882 0.000506 -0.015337
vn -0.999882 0.000506 -0.015337
vn -0.999882 0.000506 -0.015337
vn -0.999882 0.000506 -0.015337
vn -0.999882 0.000506 -0.015337
vn -0.999882 0.000506 -0.015337
vn -0.999882 0.000506 -0.015337
vn -0.999882 0.000506 -0.015337
vn -0.999882 0.000506 -0.015337
vn -0.999882 0.000506 -0.015337
vn -0.999882 0.000506 -0.015337
vn -0.999882 0.000506 -0.015337
vn -0.999882 0.000506 -0.015337
vn -0.999882 0.000506 -0.015337
vn -0.999882 0.000506 -0.015337
vn -0.999882 0.000506 -0.015337
vn -0.999882 0.000506 -0.015337
vn -0.999882 0.000506 -0.015337
vn -0.999882 0.000506 -0.015337
vn 0.000000 0.999457 0.032946
vn 0.000000 0.999457 0.032946
vn 0.000000 0.999457 0.032946
vn 0.000000 0.999457 0.032946
vn 0.015346 0.032942 -0.999339
vn 0.015346 0.032942 -0.999339
vn 0.015346 0.032942 -0.999339
vn 0.015346 0.032942 -0.999339
vn 0.000000 0.999457 0.032946
vn 0.000000 0.999457 0.032946
vn 0.000000 0.999457 0.032946
vn 0.000000 0.999457 0.032946
vn 0.000000 0.999457 0.032946
vn 0.000000 0.999457 0.032946
vn 0.000000 0.999457 0.032946
vn 0.000000 0.999457 0.032946
vn -0.015346 -0.032942 0.999339
vn -0.015346 -0.032942 0.999339
vn -0.015346 -0.032942 0.999339
vn -0.015346 -0.032942 0.999339
vn -0.000000 -0.999457 -0.032946
vn -0.000000 -0.999457 -0.032946
vn -0.000000 -0.999457 -0.032946
vn -0.000000 -0.999457 -0.032946
vn 0.015346 0.032942 -0.999339
vn 0.015346 0.032942 -0.999339
vn -0.000000 -0.999457 -0.032946
vn -0.000000 -0.999457 -0.032946
vn -0.000000 -0.999457 -0.032946
vn -0.000000 -0.999457 -0.032946
vn -0.015346 -0.032942 0.999339
vn -0.015346 -0.032942 0.999339
vn 0.015346 0.032942 -0.999339
vn 0.015346 0.032942 -0.999339
vn 0.015346 0.032942 -0.999339
vn 0.015346 0.032942 -0.999339
vn -0.015346 -0.032942 0.999339
vn -0.015346 -0.032942 0.999339
vn 0.015346 0.032942 -0.999339
vn 0.015346 0.032942 -0.999339
vn -0.015346 -0.032942 0.999339
vn -0.015346 -0.032942 0.999339
vn 0.015346 0.032942 -0.999339
vn 0.015346 0.032942 -0.999339
vn -0.015346 -0.032942 0.999339
vn -0.015346 -0.032942 0.999339
vn 0.015346 0.032942 -0.999339
vn 0.015346 0.032942 -0.999339
vn -0.015346 -0.032942 0.999339
vn -0.015346 -0.032942 0.999339
vn 0.015346 0.032942 -0.999339
vn 0.015346 0.032942 -0.999339
vn -0.015346 -0.032942 0.999339
vn -0.015346 -0.032942 0.999339
vn 0.015346 0.032942 -0.999339
vn 0.015346 0.032942 -0.999339
vn -0.015346 -0.032942 0.999339
vn -0.015346 -0.032942 0.999339
vn 0.015346 0.032942 -0.999339
vn 0.015346 0.032942 -0.999339
vn -0.015346 -0.032942 0.999339
vn -0.015346 -0.032942 0.999339
vn -0.000000 -0.999457 -0.032946
vn -0.000000 -0.999457 -0.032946
vn -0.000000 -0.999457 -0.032946
vn -0.000000 -0.999457 -0.032946
vn 0.015346 0.032942 -0.999339
vn 0.015346 0.032942 -0.999339
vn -0.015346 -0.032942 0.999339
vn -0.015346 -0.032942 0.999339
vn -0.000000 -0.999457 -0.032946
vn -0.000000 -0.999457 -0.032946
s 1
g flicker
usemtl lambert2SG
f 63/149/73 64/150/74 65/72/75 66/151/76
f 64/150/74 67/152/77 68/73/78 65/72/75
f 67/152/77 69/153/79 70/74/80 68/73/78
f 69/153/79 71/154/81 72/75/82 70/74/80
f 71/154/81 73/155/83 74/156/84 72/75/82
f 66/151/76 65/72/75 75/157/85 76/158/86
f 65/72/75 68/73/78 77/159/87 75/157/85
f 68/73/78 70/74/80 78/160/88 77/159/87
f 70/74/80 72/75/82 79/81/89 78/160/88
f 72/75/82 74/156/84 80/161/90 79/81/89
f 78/160/88 79/81/89 81/84/91 82/162/92
f 79/81/89 80/161/90 83/163/93 81/84/91
f 82/162/92 81/84/91 84/87/94 85/164/95
f 81/84/91 83/163/93 86/165/96 84/87/94
f 85/164/95 84/87/94 87/90/97 88/166/98
f 84/87/94 86/165/96 89/167/99 87/90/97
f 88/166/98 87/90/97 90/93/100 91/168/101
f 87/90/97 89/167/99 92/169/102 90/93/100
f 91/168/101 90/93/100 93/96/103 94/170/104
f 90/93/100 92/169/102 95/171/105 93/96/103
f 94/170/104 93/96/103 96/99/106 97/172/107
f 93/96/103 95/171/105 98/173/108 96/99/106
f 97/172/107 96/99/106 99/102/109 100/174/110
f 96/99/106 98/173/108 101/175/111 99/102/109
f 100/174/110 99/102/109 102/176/112 103/177/113
f 99/102/109 101/175/111 104/178/114 102/176/112
s 2
f 21/107/115 27/110/116 28/109/117 22/108/118
f 22/108/118 28/109/117 29/112/119 23/111/120
f 23/111/120 29/112/119 30/114/121 24/113/122
f 24/113/122 30/114/121 31/116/123 25/115/124
f 25/115/124 31/116/123 32/118/125 26/117/126
f 27/110/116 33/120/127 34/119/128 28/109/117
f 28/109/117 34/119/128 35/121/129 29/112/119
f 29/112/119 35/121/129 36/122/130 30/114/121
f 30/114/121 36/122/130 37/123/131 31/116/123
f 31/116/123 37/123/131 38/124/132 32/118/125
f 36/122/130 39/126/133 40/125/134 37/123/131
f 37/123/131 40/125/134 41/127/135 38/124/132
f 39/126/133 42/129/136 43/128/137 40/125/134
f 40/125/134 43/128/137 44/130/138 41/127/135
f 42/129/136 45/132/139 46/131/140 43/128/137
f 43/128/137 46/131/140 47/133/141 44/130/138
f 45/132/139 48/135/142 49/134/143 46/131/140
f 46/131/140 49/134/143 50/136/144 47/133/141
f 48/135/142 51/138/145 52/137/146 49/134/143
f 49/134/143 52/137/146 53/139/147 50/136/144
f 51/138/145 54/141/148 55/140/149 52/137/146
f 52/137/146 55/140/149 56/142/150 53/139/147
f 54/141/148 57/144/151 58/143/152 55/140/149
f 55/140/149 58/143/152 59/145/153 56/142/150
f 57/144/151 60/147/154 61/146/155 58/143/152
f 58/143/152 61/146/155 62/148/156 59/145/153
s 3
f 21/65/157 22/66/158 64/150/159 63/149/160
s 4
f 27/71/161 21/65/162 63/149/163 66/151/164
s 3
f 22/66/158 23/67/165 67/152/166 64/150/159
f 23/67/165 24/68/167 69/153/168 67/152/166
f 24/68/167 25/69/169 71/154/170 69/153/168
f 25/69/169 26/70/171 73/155/172 71/154/170
s 5
f 26/70/173 32/76/174 74/156/175 73/155/176
s 6
f 34/78/177 33/77/178 76/158/179 75/157/180
s 4
f 33/77/181 27/71/161 66/151/164 76/158/182
s 6
f 35/79/183 34/78/177 75/157/180 77/159/184
f 36/80/185 35/79/183 77/159/184 78/160/186
s 5
f 32/76/174 38/82/187 80/161/188 74/156/175
s 7
f 39/83/189 36/80/190 78/160/191 82/162/192
s 5
f 38/82/187 41/85/193 83/163/194 80/161/188
s 7
f 42/86/195 39/83/189 82/162/192 85/164/196
s 5
f 41/85/193 44/88/197 86/165/198 83/163/194
s 7
f 45/89/199 42/86/195 85/164/196 88/166/200
s 5
f 44/88/197 47/91/201 89/167/202 86/165/198
s 7
f 48/92/203 45/89/199 88/166/200 91/168/204
s 5
f 47/91/201 50/94/205 92/169/206 89/167/202
s 7
f 51/95/207 48/92/203 91/168/204 94/170/208
s 5
f 50/94/205 53/97/209 95/171/210 92/169/206
s 7
f 54/98/211 51/95/207 94/170/208 97/172/212
s 5
f 53/97/209 56/100/213 98/173/214 95/171/210
s 7
f 57/101/215 54/98/211 97/172/212 100/174/216
s 5
f 56/100/213 59/103/217 101/175/218 98/173/214
s 8
f 61/105/219 60/104/220 103/177/221 102/176/222
s 7
f 60/104/223 57/101/215 100/174/216 103/177/224
s 5
f 59/103/217 62/106/225 104/178/226 101/175/218
s 8
f 62/106/227 61/105/219 102/176/222 104/178/228
