# This file uses centimeters as units for non-parametric coordinates.

mtllib stop_sign.mtl
g default
v -0.500000 -0.056217 0.500000
v 0.500000 -0.056217 0.500000
v -0.500000 13.832337 0.500000
v 0.500000 13.832337 0.500000
v -0.500000 13.832337 -0.500000
v 0.500000 13.832337 -0.500000
v -0.500000 -0.056217 -0.500000
v 0.500000 -0.056217 -0.500000
vt 0.116005 0.042553
vt 0.125391 0.042553
vt 0.375000 0.119727
vt 0.115942 0.042553
vt 0.188029 0.957447
vt 0.625000 0.369727
vt 0.375000 0.619727
vt 0.115942 0.955288
vt 0.375000 0.869727
vt 0.625000 0.869727
vt 0.189399 0.042729
vt 0.188866 0.957364
vt 0.187740 0.043270
vt 0.188311 0.957138
vt 0.196354 0.050796
vt 0.115942 0.957447
vt 0.119917 0.957447
vt 0.191628 0.954110
vt 0.115942 0.957447
vt 0.625000 0.119727
vt 0.375000 0.369727
vt 0.116409 0.047502
vt 0.188911 0.042553
vt 0.625000 0.619727
vn 0.000000 0.000000 1.000000
vn 0.000000 0.000000 1.000000
vn 0.000000 0.000000 1.000000
vn 0.000000 0.000000 1.000000
vn 0.000000 1.000000 0.000000
vn 0.000000 1.000000 0.000000
vn 0.000000 1.000000 0.000000
vn 0.000000 1.000000 0.000000
vn 0.000000 0.000000 -1.000000
vn 0.000000 0.000000 -1.000000
vn 0.000000 0.000000 -1.000000
vn 0.000000 0.000000 -1.000000
vn 0.000000 -1.000000 0.000000
vn 0.000000 -1.000000 0.000000
vn 0.000000 -1.000000 0.000000
vn 0.000000 -1.000000 0.000000
vn 1.000000 0.000000 0.000000
vn 1.000000 0.000000 0.000000
vn 1.000000 0.000000 0.000000
vn 1.000000 0.000000 0.000000
vn -1.000000 0.000000 0.000000
vn -1.000000 0.000000 0.000000
vn -1.000000 0.000000 0.000000
vn -1.000000 0.000000 0.000000
s off
g pole
usemtl lambert3SG
f 1/2/1 2/15/2 4/18/3 3/19/4
f 3/3/5 4/20/6 6/6/7 5/21/8
f 5/5/9 6/8/10 8/22/11 7/23/12
f 7/7/13 8/24/14 2/10/15 1/9/16
f 2/4/17 8/11/18 6/12/19 4/17/20
f 7/1/21 1/13/22 3/14/23 5/16/24
g default
v 0.379424 13.185168 1.718823
v 0.379424 14.780878 3.422360
v 0.379424 17.972937 3.422360
v 0.379424 19.568648 1.718823
v 0.379424 13.185168 -1.688932
v 0.379424 14.780878 -3.392470
v 0.379424 17.972937 -3.392470
v 0.379424 19.568648 -1.688932
v -0.252829 13.181881 1.720578
v -0.252829 13.181881 -1.690687
v -0.252829 14.779234 3.425869
v -0.252829 17.974584 3.425869
v -0.252829 19.571934 1.720578
v -0.252829 19.571934 -1.690687
v -0.252829 14.779234 -3.395980
v -0.252829 17.974584 -3.395980
vt 0.583482 0.864787
vt 0.582154 0.859059
vt 0.568675 0.912950
vt 0.571609 0.859073
vt 0.603527 0.857395
vt 0.625275 0.904715
vt 0.612019 0.838754
vt 0.583103 0.890459
vt 0.054110 0.305908
vt 0.290912 0.063211
vt 0.712222 0.061322
vt 0.974099 0.302879
vt 0.981921 0.654764
vt 0.734906 0.931602
vt 0.987521 0.315347
vt 0.241838 0.907846
vt 0.275594 0.854544
vt 0.981921 0.680375
vt 0.284052 0.832822
vt 0.704539 0.954083
vt 0.255490 0.850721
vt 0.298249 0.899458
vt 0.292185 0.926706
vt 0.255538 0.853420
vt 0.256318 0.885206
vt 0.035198 0.700930
vt 0.244325 0.853811
vt 0.021477 0.318378
vt 0.285028 0.768134
vt 0.627323 0.839846
vt 0.299654 0.811413
vt 0.584882 0.767079
vt 0.257265 0.787753
vt 0.584471 0.803225
vt 0.257098 0.768389
vt 0.550692 0.820335
vt 0.222266 0.838954
vt 0.573040 0.795051
vt 0.281438 0.063211
vt 0.289639 0.904173
vt 0.721669 0.059610
vt 0.035198 0.674098
vt 0.245468 0.764172
vt 0.604892 0.772516
vt 0.276443 0.792555
vt 0.558531 0.826253
vt 0.231201 0.795655
vt 0.613501 0.746568
vn -1.000000 0.000000 0.000000
vn -1.000000 0.000000 0.000000
vn -1.000000 0.000000 0.000000
vn -1.000000 0.000000 0.000000
vn -1.000000 0.000000 0.000000
vn -1.000000 0.000000 0.000000
vn -1.000000 0.000000 0.000000
vn -1.000000 0.000000 0.000000
vn 1.000000 0.000000 0.000000
vn 1.000000 0.000000 0.000000
vn 1.000000 0.000000 0.000000
vn 1.000000 0.000000 0.000000
vn 1.000000 0.000000 0.000000
vn 1.000000 0.000000 0.000000
vn 1.000000 0.000000 0.000000
vn 1.000000 0.000000 0.000000
vn 0.005199 -0.999986 0.000000
vn 0.005199 -0.999986 0.000000
vn 0.005199 -0.999986 0.000000
vn 0.005199 -0.999986 0.000000
vn 0.005550 0.000000 0.999985
vn 0.005550 0.000000 0.999985
vn 0.005550 0.000000 0.999985
vn 0.005550 0.000000 0.999985
vn 0.005197 0.999986 0.000000
vn 0.005197 0.999986 0.000000
vn 0.005197 0.999986 0.000000
vn 0.005197 0.999986 0.000000
vn 0.005551 0.000000 -0.999985
vn 0.005551 0.000000 -0.999985
vn 0.005551 0.000000 -0.999985
vn 0.005551 0.000000 -0.999985
vn 0.005692 -0.729815 0.683621
vn 0.005692 -0.729815 0.683621
vn 0.005692 -0.729815 0.683621
vn 0.005692 -0.729815 0.683621
vn 0.005693 0.729815 0.683621
vn 0.005693 0.729815 0.683621
vn 0.005693 0.729815 0.683621
vn 0.005693 0.729815 0.683621
vn 0.005692 -0.729815 -0.683621
vn 0.005692 -0.729815 -0.683621
vn 0.005692 -0.729815 -0.683621
vn 0.005692 -0.729815 -0.683621
vn 0.005693 0.729815 -0.683620
vn 0.005693 0.729816 -0.683620
vn 0.005693 0.729815 -0.683620
vn 0.005693 0.729816 -0.683620
s off
g sign
usemtl lambert2SG
f 19/39/25 20/42/26 21/44/27 22/47/28 24/50/29 23/52/30 18/63/31 17/65/32
f 10/33/33 9/34/34 13/35/35 14/36/36 15/37/37 16/38/38 12/64/39 11/66/40
f 13/26/41 9/48/42 17/57/43 18/58/44
f 10/27/45 11/51/46 20/53/47 19/54/48
f 12/29/49 16/49/50 22/69/51 21/70/52
f 15/31/53 14/46/54 23/61/55 24/62/56
f 9/25/57 10/40/58 19/55/59 17/56/60
f 11/28/61 12/41/62 21/71/63 20/72/64
f 14/30/65 13/45/66 18/59/67 23/60/68
f 16/32/69 15/43/70 24/67/71 22/68/72
